# xmcd
#
# Track frame offsets: 
#        150
#        10659
#        25954
#        34726
#        48285
#        61128
#        74546
#        87033
#        96913
#        111348
#        122195
#        138872
#        152479
#        165591
#        178211
#        189903
#        200104
#        215940
#        225018
#        238397
#        251187
#        269448
#        281805
#        292135
#        311432
#        322922
#        342655
#
# Disc length: 4647 seconds
#
# Revision: 0
# Processed by: cddbd v1.5.2PL0 Copyright (c) Steve Scherf et al.
# Submitted via: ExactAudioCopy v0.95b3
#
DISCID=9712251b
DTITLE=Harry Nilsson  - HARRYties  5 - Popeye demos OST
DYEAR=1900
DGENRE=
TTITLE0=I Yam What I Yam
TTITLE1=He Needs Me
TTITLE2=Swee' Pea's Lullaby
TTITLE3=Din' We
TTITLE4=Sweethaven
TTITLE5=Blow Me Down
TTITLE6=Sailin'
TTITLE7=It's Not Easy Being Me
TTITLE8=Everyone's Got To Eat (Wimpy's Song)
TTITLE9=I'm Mean
TTITLE10=Kids
TTITLE11=I'm Popeye The Sailor Man
TTITLE12=Everything Is Food
TTITLE13=He Needs Me
TTITLE14=I Yam What I Yam
TTITLE15=I Yam What I Yam
TTITLE16=He Needs Me
TTITLE17=Swee' Pea's Lullaby
TTITLE18=Din' We
TTITLE19=Sweethaven
TTITLE20=Blow Me Down
TTITLE21=Sailin'
TTITLE22=It's Not Easy Being Me
TTITLE23=He's Large
TTITLE24=I'm Mean
TTITLE25=Kids
TTITLE26=I'm Popeye The Sailor Man
EXTD=
EXTT0=
EXTT1=
EXTT2=
EXTT3=
EXTT4=
EXTT5=
EXTT6=
EXTT7=
EXTT8=
EXTT9=
EXTT10=
EXTT11=
EXTT12=
EXTT13=
EXTT14=
EXTT15=
EXTT16=
EXTT17=
EXTT18=
EXTT19=
EXTT20=
EXTT21=
EXTT22=
EXTT23=
EXTT24=
EXTT25=
EXTT26=
PLAYORDER=
